<?xml version="1.0" encoding="UTF-8"?>
<svg width="180px" height="47px" viewBox="0 0 180 47" version="1.1" xmlns="http://www.w3.org/2000/svg" xmlns:xlink="http://www.w3.org/1999/xlink">
    <!-- Generator: Sketch 51.3 (57544) - http://www.bohemiancoding.com/sketch -->
    <title>honos</title>
    <desc>Created with Sketch.</desc>
    <defs></defs>
    <g id="honos" stroke="none" stroke-width="1" fill="none" fill-rule="evenodd">
        <path d="M38.8958259,45.8303867 L38.8958259,0 L28.588432,0 L28.588432,17.9701657 L10.2425675,17.9701657 L10.2425675,0 L0,0 L0,45.8303867 L10.2425675,45.8303867 L10.2425675,27.6016575 L28.588432,27.6016575 L28.588432,45.8303867 L38.8958259,45.8303867 Z M59.9918806,37.7502762 C63.7518104,37.7502762 67.2524348,35.1646409 67.2524348,29.7348066 C67.2524348,24.3049724 63.7518104,21.7839779 59.9918806,21.7839779 C56.2967771,21.7839779 52.7313264,24.3049724 52.7313264,29.7348066 C52.7313264,35.1 56.2967771,37.7502762 59.9918806,37.7502762 Z M59.9918806,12.7342541 C69.6510107,12.7342541 77.106044,19.7801105 77.106044,29.7348066 C77.106044,39.6895028 69.6510107,46.8 59.9918806,46.8 C50.3975769,46.8 42.8777172,39.6895028 42.8777172,29.7348066 C42.8777172,19.7801105 50.3975769,12.7342541 59.9918806,12.7342541 Z M91.1213338,27.4077348 C91.1213338,24.1756906 93.1957778,21.7839779 96.4370966,21.7839779 C100.002547,21.7839779 101.688033,24.1756906 101.688033,27.3430939 L101.688033,45.8303867 L111.541642,45.8303867 L111.541642,25.6624309 C111.541642,18.6165746 107.911365,12.8635359 99.8080682,12.8635359 C96.501923,12.8635359 92.547514,14.3502762 90.7972019,17.3883978 L90.7972019,13.7038674 L81.2677245,13.7038674 L81.2677245,45.8303867 L91.1213338,45.8303867 L91.1213338,27.4077348 Z M132.741572,37.7502762 C136.501501,37.7502762 140.002126,35.1646409 140.002126,29.7348066 C140.002126,29.6960937 125.481017,29.6941016 125.481017,29.7348066 C125.481017,35.1 129.046468,37.7502762 132.741572,37.7502762 Z M132.741572,12.7342541 C142.400702,12.7342541 149.855735,19.7801105 149.855735,29.7348066 C149.855735,39.6895028 142.400702,46.8 132.741572,46.8 C123.147268,46.8 115.627408,39.6895028 115.627408,29.7348066 C115.627408,19.7801105 123.147268,12.7342541 132.741572,12.7342541 Z M153.4522,35.2292818 C153.4522,39.560221 157.051463,46.8 167.164377,46.8 C175.786286,46.8 180,41.4348066 180,35.9403315 C180,31.221547 176.758681,27.2138122 170.081564,25.8563536 L165.803024,25.0160221 C164.376843,24.7574586 163.274795,23.981768 163.274795,22.6243094 C163.274795,20.9436464 164.895454,19.8447514 166.775419,19.8447514 C169.757433,19.8447514 171.118786,21.6546961 171.378092,23.7878453 L179.456009,23.7878453 C179.456009,19.8447514 175.980765,12.7342541 166.645766,12.7342541 C159.450039,12.7342541 154.263929,17.5176796 154.263929,23.4 C154.263929,27.9248619 156.986636,31.8033149 163.858232,33.2900552 L167.553336,34.1303867 C169.951912,34.6475138 170.729828,35.6171271 170.729828,36.780663 C170.729828,38.2027624 169.498127,39.560221 166.969898,39.560221 C163.598927,39.560221 162.043094,37.4270718 161.913441,35.2292818 L153.4522,35.2292818 Z" id="Honos_logo_web-Copy" fill="#000000"></path>
    </g>
</svg>