<?xml version="1.0" encoding="UTF-8"?>
<svg width="300px" height="79px" viewBox="0 0 300 79" version="1.1" xmlns="http://www.w3.org/2000/svg" xmlns:xlink="http://www.w3.org/1999/xlink">
    <!-- Generator: Sketch 51.3 (57544) - http://www.bohemiancoding.com/sketch -->
    <title>logo-black</title>
    <desc>Created with Sketch.</desc>
    <defs></defs>
    <g id="logo-black" stroke="none" stroke-width="1" fill="none" fill-rule="evenodd">
        <path d="M64.8263765,76.6394427 L64.8263765,0 L47.6473867,0 L47.6473867,30.0504444 L17.0709458,30.0504444 L17.0709458,0 L0,0 L0,76.6394427 L17.0709458,76.6394427 L17.0709458,46.1566178 L47.6473867,46.1566178 L47.6473867,76.6394427 L64.8263765,76.6394427 Z M99.9864676,63.1275522 C106.253017,63.1275522 112.087391,58.8037473 112.087391,49.7237569 C112.087391,40.6437665 106.253017,36.4280567 99.9864676,36.4280567 C93.8279619,36.4280567 87.885544,40.6437665 87.885544,49.7237569 C87.885544,58.6956522 93.8279619,63.1275522 99.9864676,63.1275522 Z M99.9864676,21.2947394 C116.085018,21.2947394 128.510073,33.0771079 128.510073,49.7237569 C128.510073,66.370406 116.085018,78.2608696 99.9864676,78.2608696 C83.9959614,78.2608696 71.462862,66.370406 71.462862,49.7237569 C71.462862,33.0771079 83.9959614,21.2947394 99.9864676,21.2947394 Z M151.86889,45.8323325 C151.86889,40.4275763 155.326296,36.4280567 160.728494,36.4280567 C166.670912,36.4280567 169.480055,40.4275763 169.480055,45.7242373 L169.480055,76.6394427 L185.902737,76.6394427 L185.902737,42.9137641 C185.902737,31.1313956 179.852275,21.5109296 166.34678,21.5109296 C160.836538,21.5109296 154.245857,23.9971175 151.32867,29.0775883 L151.32867,22.9161662 L135.446208,22.9161662 L135.446208,76.6394427 L151.86889,76.6394427 L151.86889,45.8323325 Z M221.235953,63.1275522 C227.502502,63.1275522 233.336876,58.8037473 233.336876,49.7237569 C233.336876,49.6590195 209.135029,49.6556883 209.135029,49.7237569 C209.135029,58.6956522 215.077447,63.1275522 221.235953,63.1275522 Z M221.235953,21.2947394 C237.334503,21.2947394 249.759558,33.0771079 249.759558,49.7237569 C249.759558,66.370406 237.334503,78.2608696 221.235953,78.2608696 C205.245446,78.2608696 192.712347,66.370406 192.712347,49.7237569 C192.712347,33.0771079 205.245446,21.2947394 221.235953,21.2947394 Z M255.753667,58.9118424 C255.753667,66.1542157 261.752438,78.2608696 278.607296,78.2608696 C292.977143,78.2608696 300,69.2889743 300,60.1008888 C300,52.2099448 294.597802,45.5080471 283.469274,43.2380495 L276.338373,41.8328129 C273.961405,41.4004324 272.124658,40.1032909 272.124658,37.8332933 C272.124658,35.0228201 274.825757,33.185203 277.959032,33.185203 C282.929054,33.185203 285.197977,36.2118664 285.630153,39.7790055 L299.093348,39.7790055 C299.093348,33.185203 293.301274,21.2947394 277.742944,21.2947394 C265.750064,21.2947394 257.106548,29.2937785 257.106548,39.1304348 C257.106548,46.6970934 261.644394,53.1828009 273.097054,55.6689887 L279.25556,57.0742253 C283.253186,57.9389863 284.549714,59.5604132 284.549714,61.5061254 C284.549714,63.8842181 282.496878,66.1542157 278.283164,66.1542157 C272.664878,66.1542157 270.071823,62.5870766 269.855735,58.9118424 L255.753667,58.9118424 Z" id="Honos_logo_web-Copy" fill="#000000"></path>
    </g>
</svg>